Roman_opsz8_wght700.ufo
<glyph name="parenright" format="2">
  <advance width="476"/>
  <unicode hex="0029"/>
  <outline>
    <contour>
      <point x="361" y="250" type="curve" smooth="yes"/>
      <point x="361" y="339"/>
      <point x="343" y="460"/>
      <point x="269" y="578" type="curve" smooth="yes"/>
      <point x="206" y="678"/>
      <point x="111" y="750"/>
      <point x="89" y="750" type="curve" smooth="yes"/>
      <point x="72" y="750"/>
      <point x="68" y="739"/>
      <point x="68" y="732" type="curve" smooth="yes"/>
      <point x="68" y="725"/>
      <point x="72" y="721"/>
      <point x="83" y="712" type="curve"/>
      <point x="210" y="597"/>
      <point x="255" y="422"/>
      <point x="255" y="250" type="curve" smooth="yes"/>
      <point x="255" y="79"/>
      <point x="212" y="-96"/>
      <point x="85" y="-209" type="curve" smooth="yes"/>
      <point x="73" y="-220"/>
      <point x="68" y="-224"/>
      <point x="68" y="-232" type="curve" smooth="yes"/>
      <point x="68" y="-239"/>
      <point x="72" y="-250"/>
      <point x="89" y="-250" type="curve" smooth="yes"/>
      <point x="108" y="-250"/>
      <point x="161" y="-205"/>
      <point x="181" y="-186" type="curve" smooth="yes"/>
      <point x="306" y="-62"/>
      <point x="361" y="90"/>
    </contour>
  </outline>
</glyph>
<glyph name="plus" format="2">
  <advance width="952"/>
  <unicode hex="002B"/>
  <outline>
    <contour>
      <point x="510" y="216" type="line"/>
      <point x="838" y="216" type="line" smooth="yes"/>
      <point x="851" y="216"/>
      <point x="884" y="216"/>
      <point x="884" y="250" type="curve" smooth="yes"/>
      <point x="884" y="284"/>
      <point x="850" y="284"/>
      <point x="838" y="284" type="curve" smooth="yes"/>
      <point x="510" y="284" type="line"/>
      <point x="510" y="612" type="line" smooth="yes"/>
      <point x="510" y="625"/>
      <point x="510" y="658"/>
      <point x="476" y="658" type="curve" smooth="yes"/>
      <point x="442" y="658"/>
      <point x="442" y="624"/>
      <point x="442" y="612" type="curve" smooth="yes"/>
      <point x="442" y="284" type="line"/>
      <point x="114" y="284" type="line" smooth="yes"/>
      <point x="101" y="284"/>
      <point x="68" y="284"/>
      <point x="68" y="250" type="curve" smooth="yes"/>
      <point x="68" y="216"/>
      <point x="102" y="216"/>
      <point x="114" y="216" type="curve" smooth="yes"/>
      <point x="442" y="216" type="line"/>
      <point x="442" y="-112" type="line" smooth="yes"/>
      <point x="442" y="-125"/>
      <point x="442" y="-158"/>
      <point x="476" y="-158" type="curve" smooth="yes"/>
      <point x="510" y="-158"/>
      <point x="510" y="-124"/>
      <point x="510" y="-112" type="curve" smooth="yes"/>
    </contour>
  </outline>
</glyph>
<glyph name="hyphen" format="2">
  <advance width="408"/>
  <unicode hex="002D"/>
  <outline>
    <contour>
      <point x="339" y="170" type="line"/>
      <point x="339" y="275" type="line"/>
      <point x="14" y="275" type="line"/>
      <point x="14" y="170" type="line"/>
    </contour>
  </outline>
</glyph>
<glyph name="one" format="2">
  <advance width="612"/>
  <unicode hex="0031"/>
  <outline>
    <contour>
      <point x="379" y="624" type="line" smooth="yes"/>
      <point x="379" y="658"/>
      <point x="373" y="658"/>
      <point x="333" y="658" type="curve"/>
      <point x="272" y="610"/>
      <point x="192" y="594"/>
      <point x="114" y="594" type="curve" smooth="yes"/>
      <point x="92" y="594" type="line"/>
      <point x="92" y="542" type="line"/>
      <point x="114" y="542" type="line" smooth="yes"/>
      <point x="140" y="542"/>
      <point x="194" y="545"/>
      <point x="252" y="562" type="curve"/>
      <point x="252" y="52" type="line"/>
      <point x="102" y="52" type="line"/>
      <point x="102" y="0" type="line"/>
      <point x="138" y="3"/>
      <point x="270" y="3"/>
      <point x="315" y="3" type="curve" smooth="yes"/>
      <point x="360" y="3"/>
      <point x="490" y="3"/>
      <point x="527" y="0" type="curve"/>
      <point x="527" y="52" type="line"/>
      <point x="379" y="52" type="line"/>
    </contour>
  </outline>
</glyph>
<glyph name="six" format="2">
  <advance width="612"/>
  <unicode hex="0036"/>
  <outline>
    <contour>
      <point x="194" y="347" type="curve"/>
      <point x="194" y="404"/>
      <point x="197" y="479"/>
      <point x="225" y="530" type="curve" smooth="yes"/>
      <point x="258" y="591"/>
      <point x="321" y="615"/>
      <point x="373" y="615" type="curve" smooth="yes"/>
      <point x="401" y="615"/>
      <point x="425" y="610"/>
      <point x="446" y="592" type="curve"/>
      <point x="422" y="586"/>
      <point x="395" y="564"/>
      <point x="395" y="526" type="curve" smooth="yes"/>
      <point x="395" y="488"/>
      <point x="423" y="459"/>
      <point x="462" y="459" type="curve" smooth="yes"/>
      <point x="501" y="459"/>
      <point x="530" y="486"/>
      <point x="530" y="528" type="curve" smooth="yes"/>
      <point x="530" y="589"/>
      <point x="489" y="658"/>
      <point x="372" y="658" type="curve" smooth="yes"/>
      <point x="216" y="658"/>
      <point x="51" y="562"/>
      <point x="51" y="317" type="curve" smooth="yes"/>
      <point x="51" y="189"/>
      <point x="82" y="-14"/>
      <point x="310" y="-14" type="curve" smooth="yes"/>
      <point x="459" y="-14"/>
      <point x="561" y="70"/>
      <point x="561" y="205" type="curve" smooth="yes"/>
      <point x="561" y="262"/>
      <point x="549" y="314"/>
      <point x="491" y="364" type="curve" smooth="yes"/>
      <point x="436" y="411"/>
      <point x="381" y="421"/>
      <point x="318" y="421" type="curve" smooth="yes"/>
      <point x="257" y="421"/>
      <point x="216" y="382"/>
    </contour>
    <contour>
      <point x="309" y="33" type="curve" smooth="yes"/>
      <point x="260" y="33"/>
      <point x="228" y="61"/>
      <point x="213" y="93" type="curve" smooth="yes"/>
      <point x="196" y="127"/>
      <point x="196" y="208"/>
      <point x="196" y="212" type="curve" smooth="yes"/>
      <point x="196" y="302"/>
      <point x="236" y="378"/>
      <point x="316" y="378" type="curve" smooth="yes"/>
      <point x="418" y="378"/>
      <point x="418" y="301"/>
      <point x="418" y="206" type="curve" smooth="yes"/>
      <point x="418" y="111"/>
      <point x="418" y="33"/>
    </contour>
  </outline>
</glyph>
<glyph name="colon" format="2">
  <advance width="340"/>
  <unicode hex="003A"/>
  <outline>
    <contour>
      <point x="250" y="364" type="curve" smooth="yes"/>
      <point x="250" y="408"/>
      <point x="214" y="444"/>
      <point x="170" y="444" type="curve" smooth="yes"/>
      <point x="126" y="444"/>
      <point x="90" y="408"/>
      <point x="90" y="364" type="curve" smooth="yes"/>
      <point x="90" y="320"/>
      <point x="126" y="284"/>
      <point x="170" y="284" type="curve" smooth="yes"/>
      <point x="214" y="284"/>
      <point x="250" y="320"/>
    </contour>
    <contour>
      <point x="250" y="80" type="curve" smooth="yes"/>
      <point x="250" y="124"/>
      <point x="214" y="160"/>
      <point x="170" y="160" type="curve" smooth="yes"/>
      <point x="126" y="160"/>
      <point x="90" y="124"/>
      <point x="90" y="80" type="curve" smooth="yes"/>
      <point x="90" y="36"/>
      <point x="126" y="0"/>
      <point x="170" y="0" type="curve" smooth="yes"/>
      <point x="214" y="0"/>
      <point x="250" y="36"/>
    </contour>
  </outline>
</glyph>
<glyph name="E" format="2">
  <advance width="802"/>
  <unicode hex="0045"/>
  <outline>
    <contour>
      <point x="768" y="275" type="line"/>
      <point x="712" y="275" type="line"/>
      <point x="688" y="132"/>
      <point x="652" y="52"/>
      <point x="470" y="52" type="curve" smooth="yes"/>
      <point x="304" y="52" type="line"/>
      <point x="304" y="327" type="line"/>
      <point x="364" y="327" type="line" smooth="yes"/>
      <point x="458" y="327"/>
      <point x="475" y="292"/>
      <point x="475" y="212" type="curve"/>
      <point x="531" y="212" type="line"/>
      <point x="531" y="494" type="line"/>
      <point x="475" y="494" type="line"/>
      <point x="475" y="414"/>
      <point x="458" y="379"/>
      <point x="364" y="379" type="curve" smooth="yes"/>
      <point x="304" y="379" type="line"/>
      <point x="304" y="628" type="line"/>
      <point x="467" y="628" type="line" smooth="yes"/>
      <point x="611" y="628"/>
      <point x="660" y="579"/>
      <point x="678" y="437" type="curve"/>
      <point x="734" y="437" type="line"/>
      <point x="701" y="680" type="line"/>
      <point x="47" y="680" type="line"/>
      <point x="47" y="628" type="line"/>
      <point x="155" y="628" type="line"/>
      <point x="155" y="52" type="line"/>
      <point x="47" y="52" type="line"/>
      <point x="47" y="0" type="line"/>
      <point x="719" y="0" type="line"/>
    </contour>
  </outline>
</glyph>
<glyph name="Q" format="2">
  <advance width="920"/>
  <unicode hex="0051"/>
  <outline>
    <contour>
      <point x="636" y="16" type="curve"/>
      <point x="785" y="76"/>
      <point x="851" y="200"/>
      <point x="851" y="339" type="curve" smooth="yes"/>
      <point x="851" y="540"/>
      <point x="714" y="700"/>
      <point x="459" y="700" type="curve" smooth="yes"/>
      <point x="208" y="700"/>
      <point x="68" y="543"/>
      <point x="68" y="339" type="curve" smooth="yes"/>
      <point x="68" y="142"/>
      <point x="205" y="-14"/>
      <point x="460" y="-14" type="curve" smooth="yes"/>
      <point x="472" y="-14"/>
      <point x="515" y="-14"/>
      <point x="560" y="-5" type="curve"/>
      <point x="587" y="-102"/>
      <point x="612" y="-194"/>
      <point x="711" y="-194" type="curve" smooth="yes"/>
      <point x="814" y="-194"/>
      <point x="858" y="-82"/>
      <point x="858" y="-7" type="curve" smooth="yes"/>
      <point x="858" y="0"/>
      <point x="858" y="21"/>
      <point x="837" y="21" type="curve" smooth="yes"/>
      <point x="819" y="21"/>
      <point x="817" y="5"/>
      <point x="816" y="-3" type="curve" smooth="yes"/>
      <point x="812" y="-34"/>
      <point x="745" y="-34"/>
      <point x="729" y="-34" type="curve" smooth="yes"/>
      <point x="704" y="-34"/>
      <point x="677" y="-34"/>
    </contour>
    <contour>
      <point x="355" y="55" type="curve"/>
      <point x="241" y="110"/>
      <point x="222" y="225"/>
      <point x="222" y="339" type="curve" smooth="yes"/>
      <point x="222" y="395"/>
      <point x="225" y="494"/>
      <point x="276" y="565" type="curve" smooth="yes"/>
      <point x="324" y="631"/>
      <point x="398" y="653"/>
      <point x="459" y="653" type="curve" smooth="yes"/>
      <point x="527" y="653"/>
      <point x="596" y="627"/>
      <point x="641" y="567" type="curve" smooth="yes"/>
      <point x="693" y="497"/>
      <point x="697" y="400"/>
      <point x="697" y="339" type="curve" smooth="yes"/>
      <point x="697" y="285"/>
      <point x="697" y="138"/>
      <point x="593" y="72" type="curve"/>
      <point x="564" y="111"/>
      <point x="524" y="158"/>
      <point x="459" y="158" type="curve" smooth="yes"/>
      <point x="402" y="158"/>
      <point x="353" y="124"/>
      <point x="353" y="73" type="curve" smooth="yes"/>
      <point x="353" y="68"/>
      <point x="354" y="60"/>
    </contour>
    <contour>
      <point x="542" y="47" type="curve"/>
      <point x="506" y="33"/>
      <point x="468" y="33"/>
      <point x="460" y="33" type="curve" smooth="yes"/>
      <point x="430" y="33"/>
      <point x="395" y="42"/>
      <point x="395" y="73" type="curve" smooth="yes"/>
      <point x="395" y="102"/>
      <point x="430" y="116"/>
      <point x="459" y="116" type="curve" smooth="yes"/>
      <point x="504" y="116"/>
      <point x="525" y="88"/>
    </contour>
  </outline>
</glyph>
<glyph name="S" format="2">
  <advance width="680"/>
  <unicode hex="0053"/>
  <outline>
    <contour>
      <point x="275" y="446" type="line" smooth="yes"/>
      <point x="203" y="461"/>
      <point x="169" y="505"/>
      <point x="169" y="549" type="curve" smooth="yes"/>
      <point x="169" y="593"/>
      <point x="200" y="653"/>
      <point x="307" y="653" type="curve" smooth="yes"/>
      <point x="330" y="653"/>
      <point x="397" y="651"/>
      <point x="450" y="611" type="curve" smooth="yes"/>
      <point x="506" y="568"/>
      <point x="517" y="506"/>
      <point x="521" y="482" type="curve" smooth="yes"/>
      <point x="524" y="463"/>
      <point x="525" y="458"/>
      <point x="550" y="458" type="curve" smooth="yes"/>
      <point x="577" y="458"/>
      <point x="578" y="465"/>
      <point x="578" y="489" type="curve" smooth="yes"/>
      <point x="578" y="669" type="line" smooth="yes"/>
      <point x="578" y="688"/>
      <point x="578" y="700"/>
      <point x="556" y="700" type="curve" smooth="yes"/>
      <point x="544" y="700"/>
      <point x="543" y="699"/>
      <point x="520" y="676" type="curve" smooth="yes"/>
      <point x="489" y="646" type="line"/>
      <point x="443" y="679"/>
      <point x="387" y="700"/>
      <point x="307" y="700" type="curve" smooth="yes"/>
      <point x="138" y="700"/>
      <point x="68" y="595"/>
      <point x="68" y="498" type="curve" smooth="yes"/>
      <point x="68" y="455"/>
      <point x="82" y="413"/>
      <point x="116" y="374" type="curve" smooth="yes"/>
      <point x="168" y="315"/>
      <point x="231" y="303"/>
      <point x="275" y="294" type="curve" smooth="yes"/>
      <point x="398" y="269" type="line" smooth="yes"/>
      <point x="484" y="251"/>
      <point x="511" y="197"/>
      <point x="511" y="153" type="curve" smooth="yes"/>
      <point x="511" y="122"/>
      <point x="497" y="38"/>
      <point x="369" y="38" type="curve" smooth="yes"/>
      <point x="321" y="38"/>
      <point x="248" y="45"/>
      <point x="192" y="80" type="curve" smooth="yes"/>
      <point x="129" y="119"/>
      <point x="125" y="180"/>
      <point x="124" y="212" type="curve" smooth="yes"/>
      <point x="123" y="228"/>
      <point x="107" y="228"/>
      <point x="96" y="228" type="curve" smooth="yes"/>
      <point x="68" y="228"/>
      <point x="68" y="220"/>
      <point x="68" y="197" type="curve" smooth="yes"/>
      <point x="68" y="17" type="line" smooth="yes"/>
      <point x="68" y="-2"/>
      <point x="68" y="-14"/>
      <point x="90" y="-14" type="curve" smooth="yes"/>
      <point x="102" y="-14"/>
      <point x="103" y="-13"/>
      <point x="126" y="10" type="curve" smooth="yes"/>
      <point x="156" y="39" type="line"/>
      <point x="226" y="-7"/>
      <point x="318" y="-14"/>
      <point x="370" y="-14" type="curve" smooth="yes"/>
      <point x="550" y="-14"/>
      <point x="612" y="104"/>
      <point x="612" y="202" type="curve" smooth="yes"/>
      <point x="612" y="312"/>
      <point x="527" y="395"/>
      <point x="427" y="415" type="curve" smooth="yes"/>
    </contour>
  </outline>
</glyph>
<glyph name="d" format="2">
  <advance width="680"/>
  <unicode hex="0064"/>
  <outline>
    <contour>
      <point x="386" y="686" type="line"/>
      <point x="386" y="634" type="line"/>
      <point x="445" y="634"/>
      <point x="452" y="634"/>
      <point x="452" y="595" type="curve" smooth="yes"/>
      <point x="452" y="408" type="line"/>
      <point x="398" y="445"/>
      <point x="346" y="451"/>
      <point x="309" y="451" type="curve" smooth="yes"/>
      <point x="140" y="451"/>
      <point x="41" y="351"/>
      <point x="41" y="222" type="curve" smooth="yes"/>
      <point x="41" y="91"/>
      <point x="138" y="-7"/>
      <point x="297" y="-7" type="curve" smooth="yes"/>
      <point x="370" y="-7"/>
      <point x="420" y="22"/>
      <point x="446" y="42" type="curve"/>
      <point x="446" y="-7" type="line"/>
      <point x="634" y="0" type="line"/>
      <point x="634" y="52" type="line"/>
      <point x="575" y="52"/>
      <point x="568" y="52"/>
      <point x="568" y="91" type="curve" smooth="yes"/>
      <point x="568" y="694" type="line"/>
    </contour>
    <contour>
      <point x="446" y="111" type="line"/>
      <point x="399" y="45"/>
      <point x="340" y="35"/>
      <point x="306" y="35" type="curve" smooth="yes"/>
      <point x="176" y="35"/>
      <point x="176" y="159"/>
      <point x="176" y="219" type="curve" smooth="yes"/>
      <point x="176" y="282"/>
      <point x="176" y="409"/>
      <point x="319" y="409" type="curve" smooth="yes"/>
      <point x="365" y="409"/>
      <point x="412" y="390"/>
      <point x="446" y="347" type="curve"/>
    </contour>
  </outline>
</glyph>
<glyph name="h" format="2">
  <advance width="680"/>
  <unicode hex="0068"/>
  <outline>
    <contour>
      <point x="584" y="303" type="line" smooth="yes"/>
      <point x="584" y="425"/>
      <point x="508" y="451"/>
      <point x="419" y="451" type="curve" smooth="yes"/>
      <point x="314" y="451"/>
      <point x="259" y="390"/>
      <point x="238" y="359" type="curve"/>
      <point x="238" y="694" type="line"/>
      <point x="56" y="686" type="line"/>
      <point x="56" y="634" type="line"/>
      <point x="115" y="634"/>
      <point x="122" y="634"/>
      <point x="122" y="595" type="curve" smooth="yes"/>
      <point x="122" y="52" type="line"/>
      <point x="56" y="52" type="line"/>
      <point x="56" y="0" type="line"/>
      <point x="110" y="3"/>
      <point x="145" y="3"/>
      <point x="183" y="3" type="curve" smooth="yes"/>
      <point x="222" y="3"/>
      <point x="256" y="3"/>
      <point x="310" y="0" type="curve"/>
      <point x="310" y="52" type="line"/>
      <point x="244" y="52" type="line"/>
      <point x="244" y="253" type="line" smooth="yes"/>
      <point x="244" y="364"/>
      <point x="340" y="409"/>
      <point x="404" y="409" type="curve" smooth="yes"/>
      <point x="439" y="409"/>
      <point x="462" y="392"/>
      <point x="462" y="314" type="curve" smooth="yes"/>
      <point x="462" y="52" type="line"/>
      <point x="396" y="52" type="line"/>
      <point x="396" y="0" type="line"/>
      <point x="450" y="3"/>
      <point x="485" y="3"/>
      <point x="523" y="3" type="curve" smooth="yes"/>
      <point x="562" y="3"/>
      <point x="596" y="3"/>
      <point x="650" y="0" type="curve"/>
      <point x="650" y="52" type="line"/>
      <point x="584" y="52" type="line"/>
    </contour>
  </outline>
</glyph>
<glyph name="l" format="2">
  <advance width="340"/>
  <unicode hex="006C"/>
  <outline>
    <contour>
      <point x="241" y="694" type="line"/>
      <point x="59" y="686" type="line"/>
      <point x="59" y="634" type="line"/>
      <point x="118" y="634"/>
      <point x="125" y="634"/>
      <point x="125" y="595" type="curve" smooth="yes"/>
      <point x="125" y="52" type="line"/>
      <point x="59" y="52" type="line"/>
      <point x="59" y="0" type="line"/>
      <point x="117" y="3"/>
      <point x="127" y="3"/>
      <point x="183" y="3" type="curve" smooth="yes"/>
      <point x="239" y="3"/>
      <point x="249" y="3"/>
      <point x="307" y="0" type="curve"/>
      <point x="307" y="52" type="line"/>
      <point x="241" y="52" type="line"/>
    </contour>
  </outline>
</glyph>
<glyph name="m" format="2">
  <advance width="1020"/>
  <unicode hex="006D"/>
  <outline>
    <contour>
      <point x="924" y="303" type="line" smooth="yes"/>
      <point x="924" y="423"/>
      <point x="851" y="451"/>
      <point x="759" y="451" type="curve" smooth="yes"/>
      <point x="654" y="451"/>
      <point x="599" y="390"/>
      <point x="578" y="359" type="curve"/>
      <point x="554" y="437"/>
      <point x="487" y="451"/>
      <point x="419" y="451" type="curve" smooth="yes"/>
      <point x="298" y="451"/>
      <point x="244" y="371"/>
      <point x="232" y="349" type="curve"/>
      <point x="231" y="349" type="line"/>
      <point x="231" y="451" type="line"/>
      <point x="56" y="443" type="line"/>
      <point x="56" y="391" type="line"/>
      <point x="115" y="391"/>
      <point x="122" y="391"/>
      <point x="122" y="352" type="curve" smooth="yes"/>
      <point x="122" y="52" type="line"/>
      <point x="56" y="52" type="line"/>
      <point x="56" y="0" type="line"/>
      <point x="110" y="3"/>
      <point x="145" y="3"/>
      <point x="183" y="3" type="curve" smooth="yes"/>
      <point x="222" y="3"/>
      <point x="256" y="3"/>
      <point x="310" y="0" type="curve"/>
      <point x="310" y="52" type="line"/>
      <point x="244" y="52" type="line"/>
      <point x="244" y="253" type="line" smooth="yes"/>
      <point x="244" y="364"/>
      <point x="340" y="409"/>
      <point x="404" y="409" type="curve" smooth="yes"/>
      <point x="439" y="409"/>
      <point x="462" y="392"/>
      <point x="462" y="314" type="curve" smooth="yes"/>
      <point x="462" y="52" type="line"/>
      <point x="396" y="52" type="line"/>
      <point x="396" y="0" type="line"/>
      <point x="450" y="3"/>
      <point x="485" y="3"/>
      <point x="523" y="3" type="curve" smooth="yes"/>
      <point x="562" y="3"/>
      <point x="596" y="3"/>
      <point x="650" y="0" type="curve"/>
      <point x="650" y="52" type="line"/>
      <point x="584" y="52" type="line"/>
      <point x="584" y="253" type="line" smooth="yes"/>
      <point x="584" y="364"/>
      <point x="680" y="409"/>
      <point x="744" y="409" type="curve" smooth="yes"/>
      <point x="779" y="409"/>
      <point x="802" y="392"/>
      <point x="802" y="314" type="curve" smooth="yes"/>
      <point x="802" y="52" type="line"/>
      <point x="736" y="52" type="line"/>
      <point x="736" y="0" type="line"/>
      <point x="790" y="3"/>
      <point x="825" y="3"/>
      <point x="863" y="3" type="curve" smooth="yes"/>
      <point x="902" y="3"/>
      <point x="936" y="3"/>
      <point x="990" y="0" type="curve"/>
      <point x="990" y="52" type="line"/>
      <point x="924" y="52" type="line"/>
    </contour>
  </outline>
</glyph>
<glyph name="o" format="2">
  <advance width="612"/>
  <unicode hex="006F"/>
  <outline>
    <contour>
      <point x="578" y="218" type="curve" smooth="yes"/>
      <point x="578" y="344"/>
      <point x="489" y="455"/>
      <point x="306" y="455" type="curve" smooth="yes"/>
      <point x="122" y="455"/>
      <point x="34" y="343"/>
      <point x="34" y="218" type="curve" smooth="yes"/>
      <point x="34" y="99"/>
      <point x="122" y="-7"/>
      <point x="306" y="-7" type="curve" smooth="yes"/>
      <point x="492" y="-7"/>
      <point x="578" y="100"/>
    </contour>
    <contour>
      <point x="306" y="40" type="curve" smooth="yes"/>
      <point x="169" y="40"/>
      <point x="169" y="143"/>
      <point x="169" y="230" type="curve" smooth="yes"/>
      <point x="169" y="312"/>
      <point x="169" y="413"/>
      <point x="306" y="413" type="curve" smooth="yes"/>
      <point x="443" y="413"/>
      <point x="443" y="311"/>
      <point x="443" y="230" type="curve" smooth="yes"/>
      <point x="443" y="143"/>
      <point x="443" y="40"/>
    </contour>
  </outline>
</glyph>
<glyph name="p" format="2">
  <advance width="680"/>
  <unicode hex="0070"/>
  <outline>
    <contour>
      <point x="300" y="-142" type="line"/>
      <point x="234" y="-142" type="line"/>
      <point x="234" y="37" type="line"/>
      <point x="286" y="-1"/>
      <point x="335" y="-7"/>
      <point x="370" y="-7" type="curve" smooth="yes"/>
      <point x="534" y="-7"/>
      <point x="639" y="88"/>
      <point x="639" y="223" type="curve" smooth="yes"/>
      <point x="639" y="348"/>
      <point x="550" y="451"/>
      <point x="389" y="451" type="curve" smooth="yes"/>
      <point x="332" y="451"/>
      <point x="276" y="436"/>
      <point x="228" y="404" type="curve"/>
      <point x="228" y="451" type="line"/>
      <point x="46" y="443" type="line"/>
      <point x="46" y="391" type="line"/>
      <point x="65" y="391"/>
      <point x="83" y="391"/>
      <point x="95" y="388" type="curve"/>
      <point x="112" y="385"/>
      <point x="112" y="374"/>
      <point x="112" y="355" type="curve" smooth="yes"/>
      <point x="112" y="-142" type="line"/>
      <point x="46" y="-142" type="line"/>
      <point x="46" y="-194" type="line"/>
      <point x="100" y="-191"/>
      <point x="135" y="-191"/>
      <point x="173" y="-191" type="curve" smooth="yes"/>
      <point x="212" y="-191"/>
      <point x="246" y="-191"/>
      <point x="300" y="-194" type="curve"/>
    </contour>
    <contour>
      <point x="234" y="342" type="line"/>
      <point x="251" y="363"/>
      <point x="301" y="404"/>
      <point x="372" y="404" type="curve" smooth="yes"/>
      <point x="451" y="404"/>
      <point x="504" y="337"/>
      <point x="504" y="223" type="curve" smooth="yes"/>
      <point x="504" y="89"/>
      <point x="433" y="35"/>
      <point x="360" y="35" type="curve" smooth="yes"/>
      <point x="315" y="35"/>
      <point x="267" y="57"/>
      <point x="234" y="106" type="curve"/>
    </contour>
  </outline>
</glyph>
<glyph name="v" format="2">
  <advance width="646"/>
  <unicode hex="0076"/>
  <outline>
    <contour>
      <point x="543" y="371" type="line" smooth="yes"/>
      <point x="551" y="387"/>
      <point x="554" y="392"/>
      <point x="616" y="392" type="curve"/>
      <point x="616" y="444" type="line"/>
      <point x="578" y="441"/>
      <point x="576" y="441"/>
      <point x="533" y="441" type="curve" smooth="yes"/>
      <point x="526" y="441"/>
      <point x="473" y="441"/>
      <point x="443" y="444" type="curve"/>
      <point x="443" y="392" type="line"/>
      <point x="469" y="392"/>
      <point x="476" y="389"/>
      <point x="486" y="384" type="curve"/>
      <point x="485" y="382"/>
      <point x="485" y="380"/>
      <point x="480" y="371" type="curve" smooth="yes"/>
      <point x="357" y="124" type="line"/>
      <point x="222" y="392" type="line"/>
      <point x="270" y="392" type="line"/>
      <point x="270" y="444" type="line"/>
      <point x="209" y="441"/>
      <point x="198" y="441"/>
      <point x="147" y="441" type="curve" smooth="yes"/>
      <point x="115" y="441"/>
      <point x="73" y="441"/>
      <point x="30" y="444" type="curve"/>
      <point x="30" y="392" type="line"/>
      <point x="93" y="392" type="line"/>
      <point x="278" y="23" type="line" smooth="yes"/>
      <point x="287" y="6"/>
      <point x="292" y="-5"/>
      <point x="323" y="-5" type="curve" smooth="yes"/>
      <point x="339" y="-5"/>
      <point x="355" y="-5"/>
      <point x="369" y="23" type="curve" smooth="yes"/>
    </contour>
  </outline>
</glyph>
<glyph name="x" format="2">
  <advance width="646"/>
  <unicode hex="0078"/>
  <outline>
    <contour>
      <point x="372" y="244" type="line"/>
      <point x="499" y="375" type="line" smooth="yes"/>
      <point x="515" y="392"/>
      <point x="545" y="392"/>
      <point x="597" y="392" type="curve"/>
      <point x="597" y="444" type="line"/>
      <point x="567" y="441"/>
      <point x="522" y="441"/>
      <point x="502" y="441" type="curve" smooth="yes"/>
      <point x="493" y="441"/>
      <point x="435" y="441"/>
      <point x="400" y="444" type="curve"/>
      <point x="400" y="392" type="line"/>
      <point x="410" y="392"/>
      <point x="427" y="389"/>
      <point x="427" y="383" type="curve" smooth="yes"/>
      <point x="427" y="380"/>
      <point x="421" y="374"/>
      <point x="420" y="373" type="curve" smooth="yes"/>
      <point x="335" y="285" type="line"/>
      <point x="236" y="392" type="line"/>
      <point x="266" y="392" type="line"/>
      <point x="266" y="444" type="line"/>
      <point x="208" y="441"/>
      <point x="195" y="441"/>
      <point x="146" y="441" type="curve" smooth="yes"/>
      <point x="128" y="441"/>
      <point x="69" y="441"/>
      <point x="34" y="444" type="curve"/>
      <point x="34" y="392" type="line"/>
      <point x="104" y="392" type="line"/>
      <point x="267" y="215" type="line"/>
      <point x="128" y="70" type="line" smooth="yes"/>
      <point x="117" y="59"/>
      <point x="107" y="52"/>
      <point x="45" y="52" type="curve" smooth="yes"/>
      <point x="28" y="52" type="line"/>
      <point x="28" y="0" type="line"/>
      <point x="59" y="3"/>
      <point x="105" y="3"/>
      <point x="123" y="3" type="curve" smooth="yes"/>
      <point x="129" y="3"/>
      <point x="191" y="3"/>
      <point x="226" y="0" type="curve"/>
      <point x="226" y="52" type="line"/>
      <point x="207" y="52"/>
      <point x="202" y="57"/>
      <point x="197" y="61" type="curve"/>
      <point x="305" y="174" type="line"/>
      <point x="417" y="52" type="line"/>
      <point x="387" y="52" type="line"/>
      <point x="387" y="0" type="line"/>
      <point x="445" y="3"/>
      <point x="458" y="3"/>
      <point x="507" y="3" type="curve" smooth="yes"/>
      <point x="522" y="3"/>
      <point x="584" y="3"/>
      <point x="619" y="0" type="curve"/>
      <point x="619" y="52" type="line"/>
      <point x="549" y="52" type="line"/>
    </contour>
  </outline>
</glyph>
<glyph name="y" format="2">
  <advance width="646"/>
  <unicode hex="0079"/>
  <outline>
    <contour>
      <point x="543" y="371" type="line" smooth="yes"/>
      <point x="552" y="388"/>
      <point x="554" y="392"/>
      <point x="616" y="392" type="curve"/>
      <point x="616" y="444" type="line"/>
      <point x="578" y="441"/>
      <point x="576" y="441"/>
      <point x="533" y="441" type="curve" smooth="yes"/>
      <point x="526" y="441"/>
      <point x="473" y="441"/>
      <point x="443" y="444" type="curve"/>
      <point x="443" y="392" type="line"/>
      <point x="444" y="392"/>
      <point x="484" y="392"/>
      <point x="484" y="382" type="curve" smooth="yes"/>
      <point x="484" y="379"/>
      <point x="481" y="373"/>
      <point x="479" y="369" type="curve" smooth="yes"/>
      <point x="357" y="128" type="line"/>
      <point x="223" y="392" type="line"/>
      <point x="270" y="392" type="line"/>
      <point x="270" y="444" type="line"/>
      <point x="212" y="441"/>
      <point x="191" y="441"/>
      <point x="147" y="441" type="curve" smooth="yes"/>
      <point x="124" y="441"/>
      <point x="70" y="441"/>
      <point x="30" y="444" type="curve"/>
      <point x="30" y="392" type="line"/>
      <point x="93" y="392" type="line"/>
      <point x="291" y="0" type="line"/>
      <point x="250" y="-85"/>
      <point x="242" y="-95"/>
      <point x="235" y="-105" type="curve" smooth="yes"/>
      <point x="197" y="-154"/>
      <point x="154" y="-159"/>
      <point x="138" y="-159" type="curve" smooth="yes"/>
      <point x="129" y="-159"/>
      <point x="125" y="-158"/>
      <point x="120" y="-156" type="curve"/>
      <point x="140" y="-144"/>
      <point x="149" y="-124"/>
      <point x="149" y="-102" type="curve" smooth="yes"/>
      <point x="149" y="-62"/>
      <point x="119" y="-40"/>
      <point x="87" y="-40" type="curve" smooth="yes"/>
      <point x="54" y="-40"/>
      <point x="24" y="-62"/>
      <point x="24" y="-103" type="curve" smooth="yes"/>
      <point x="24" y="-156"/>
      <point x="73" y="-201"/>
      <point x="137" y="-201" type="curve" smooth="yes"/>
      <point x="234" y="-201"/>
      <point x="294" y="-117"/>
      <point x="308" y="-90" type="curve" smooth="yes"/>
    </contour>
  </outline>
</glyph>
<glyph name="macron" format="2">
  <advance width="612"/>
  <unicode hex="00AF"/>
  <outline>
    <contour>
      <point x="527" y="558" type="line"/>
      <point x="527" y="616" type="line"/>
      <point x="85" y="616" type="line"/>
      <point x="85" y="558" type="line"/>
    </contour>
  </outline>
</glyph>
<glyph name="cedilla" format="2">
  <advance width="544"/>
  <unicode hex="00B8"/>
  <outline>
    <contour>
      <point x="367" y="-14" type="line"/>
      <point x="245" y="-14" type="line"/>
      <point x="245" y="-63" type="line"/>
      <point x="280" y="-63"/>
      <point x="347" y="-67"/>
      <point x="347" y="-113" type="curve" smooth="yes"/>
      <point x="347" y="-163"/>
      <point x="221" y="-163"/>
      <point x="185" y="-163" type="curve" smooth="yes"/>
      <point x="142" y="-163" type="line"/>
      <point x="142" y="-205" type="line"/>
      <point x="203" y="-205" type="line" smooth="yes"/>
      <point x="257" y="-205"/>
      <point x="312" y="-203"/>
      <point x="366" y="-193" type="curve" smooth="yes"/>
      <point x="413" y="-183"/>
      <point x="469" y="-164"/>
      <point x="469" y="-112" type="curve" smooth="yes"/>
      <point x="469" y="-46"/>
      <point x="398" y="-32"/>
      <point x="367" y="-27" type="curve"/>
    </contour>
  </outline>
</glyph>
<glyph name="oslash" format="2">
  <advance width="612"/>
  <unicode hex="00F8"/>
  <outline>
    <contour>
      <point x="534" y="530" type="line"/>
      <point x="500" y="554" type="line"/>
      <point x="423" y="437" type="line"/>
      <point x="369" y="455"/>
      <point x="319" y="455"/>
      <point x="306" y="455" type="curve" smooth="yes"/>
      <point x="122" y="455"/>
      <point x="34" y="343"/>
      <point x="34" y="218" type="curve" smooth="yes"/>
      <point x="34" y="150"/>
      <point x="64" y="71"/>
      <point x="151" y="26" type="curve"/>
      <point x="78" y="-85" type="line"/>
      <point x="112" y="-109" type="line"/>
      <point x="190" y="10" type="line"/>
      <point x="227" y="-2"/>
      <point x="266" y="-7"/>
      <point x="306" y="-7" type="curve" smooth="yes"/>
      <point x="492" y="-7"/>
      <point x="578" y="100"/>
      <point x="578" y="218" type="curve" smooth="yes"/>
      <point x="578" y="291"/>
      <point x="546" y="374"/>
      <point x="462" y="419" type="curve"/>
    </contour>
    <contour>
      <point x="186" y="80" type="line"/>
      <point x="156" y="117"/>
      <point x="156" y="171"/>
      <point x="156" y="219" type="curve" smooth="yes"/>
      <point x="156" y="295"/>
      <point x="156" y="413"/>
      <point x="306" y="413" type="curve" smooth="yes"/>
      <point x="357" y="413"/>
      <point x="390" y="395"/>
      <point x="393" y="393" type="curve"/>
    </contour>
    <contour>
      <point x="425" y="364" type="line"/>
      <point x="455" y="327"/>
      <point x="456" y="277"/>
      <point x="456" y="219" type="curve" smooth="yes"/>
      <point x="456" y="143"/>
      <point x="456" y="35"/>
      <point x="306" y="35" type="curve" smooth="yes"/>
      <point x="295" y="35"/>
      <point x="253" y="35"/>
      <point x="220" y="54" type="curve"/>
    </contour>
  </outline>
</glyph>
<glyph name="dotlessi" format="2">
  <advance width="340"/>
  <unicode hex="0131"/>
  <outline>
    <contour>
      <point x="241" y="451" type="line"/>
      <point x="62" y="443" type="line"/>
      <point x="62" y="391" type="line"/>
      <point x="118" y="391"/>
      <point x="125" y="391"/>
      <point x="125" y="353" type="curve" smooth="yes"/>
      <point x="125" y="52" type="line"/>
      <point x="59" y="52" type="line"/>
      <point x="59" y="0" type="line"/>
      <point x="117" y="3"/>
      <point x="128" y="3"/>
      <point x="181" y="3" type="curve" smooth="yes"/>
      <point x="222" y="3"/>
      <point x="251" y="3"/>
      <point x="300" y="0" type="curve"/>
      <point x="300" y="52" type="line"/>
      <point x="241" y="52" type="line"/>
    </contour>
  </outline>
</glyph>
<glyph name="caron" format="2">
  <advance width="612"/>
  <unicode hex="02C7"/>
  <outline>
    <contour>
      <point x="306" y="604" type="line"/>
      <point x="165" y="657" type="line"/>
      <point x="141" y="607" type="line"/>
      <point x="306" y="516" type="line"/>
      <point x="471" y="607" type="line"/>
      <point x="447" y="657" type="line"/>
    </contour>
  </outline>
</glyph>
<glyph name="hungarumlaut" format="2">
  <advance width="612"/>
  <unicode hex="02DD"/>
  <outline>
    <contour>
      <point x="294" y="598" type="line" smooth="yes"/>
      <point x="303" y="606"/>
      <point x="320" y="620"/>
      <point x="320" y="645" type="curve" smooth="yes"/>
      <point x="320" y="681"/>
      <point x="282" y="711"/>
      <point x="250" y="711" type="curve" smooth="yes"/>
      <point x="212" y="711"/>
      <point x="198" y="676"/>
      <point x="194" y="665" type="curve" smooth="yes"/>
      <point x="147" y="544" type="line"/>
      <point x="193" y="511" type="line"/>
    </contour>
    <contour>
      <point x="351" y="544" type="line"/>
      <point x="397" y="511" type="line"/>
      <point x="498" y="598" type="line" smooth="yes"/>
      <point x="507" y="606"/>
      <point x="524" y="620"/>
      <point x="524" y="645" type="curve" smooth="yes"/>
      <point x="524" y="681"/>
      <point x="486" y="711"/>
      <point x="454" y="711" type="curve" smooth="yes"/>
      <point x="416" y="711"/>
      <point x="402" y="676"/>
      <point x="398" y="665" type="curve" smooth="yes"/>
    </contour>
  </outline>
</glyph>
<glyph name="Lambda" format="2">
  <advance width="854"/>
  <unicode hex="039B"/>
  <outline>
    <contour>
      <point x="474" y="673" type="line" smooth="yes"/>
      <point x="463" y="701"/>
      <point x="448" y="701"/>
      <point x="427" y="701" type="curve" smooth="yes"/>
      <point x="397" y="701"/>
      <point x="390" y="697"/>
      <point x="380" y="673" type="curve" smooth="yes"/>
      <point x="138" y="73" type="line" smooth="yes"/>
      <point x="132" y="58"/>
      <point x="131" y="57"/>
      <point x="108" y="55" type="curve" smooth="yes"/>
      <point x="93" y="53"/>
      <point x="78" y="52"/>
      <point x="63" y="52" type="curve" smooth="yes"/>
      <point x="44" y="52" type="line"/>
      <point x="44" y="0" type="line"/>
      <point x="83" y="3"/>
      <point x="136" y="3"/>
      <point x="162" y="3" type="curve" smooth="yes"/>
      <point x="214" y="3"/>
      <point x="216" y="3"/>
      <point x="295" y="0" type="curve"/>
      <point x="295" y="52" type="line"/>
      <point x="276" y="52"/>
      <point x="236" y="52"/>
      <point x="206" y="60" type="curve"/>
      <point x="208" y="68"/>
      <point x="208" y="70"/>
      <point x="211" y="76" type="curve"/>
      <point x="382" y="501" type="line"/>
      <point x="562" y="52" type="line"/>
      <point x="469" y="52" type="line"/>
      <point x="469" y="0" type="line"/>
      <point x="506" y="3"/>
      <point x="604" y="3"/>
      <point x="646" y="3" type="curve" smooth="yes"/>
      <point x="727" y="3"/>
      <point x="729" y="3"/>
      <point x="809" y="0" type="curve"/>
      <point x="809" y="52" type="line"/>
      <point x="723" y="52" type="line"/>
    </contour>
  </outline>
</glyph>
<glyph name="Pi" format="2">
  <advance width="954"/>
  <unicode hex="03A0"/>
  <outline>
    <contour>
      <point x="799" y="628" type="line"/>
      <point x="907" y="628" type="line"/>
      <point x="907" y="680" type="line"/>
      <point x="47" y="680" type="line"/>
      <point x="47" y="628" type="line"/>
      <point x="155" y="628" type="line"/>
      <point x="155" y="52" type="line"/>
      <point x="47" y="52" type="line"/>
      <point x="47" y="0" type="line"/>
      <point x="85" y="3"/>
      <point x="186" y="3"/>
      <point x="230" y="3" type="curve" smooth="yes"/>
      <point x="273" y="3"/>
      <point x="374" y="3"/>
      <point x="412" y="0" type="curve"/>
      <point x="412" y="52" type="line"/>
      <point x="304" y="52" type="line"/>
      <point x="304" y="628" type="line"/>
      <point x="650" y="628" type="line"/>
      <point x="650" y="52" type="line"/>
      <point x="542" y="52" type="line"/>
      <point x="542" y="0" type="line"/>
      <point x="580" y="3"/>
      <point x="681" y="3"/>
      <point x="725" y="3" type="curve" smooth="yes"/>
      <point x="768" y="3"/>
      <point x="869" y="3"/>
      <point x="907" y="0" type="curve"/>
      <point x="907" y="52" type="line"/>
      <point x="799" y="52" type="line"/>
    </contour>
  </outline>
</glyph>
<glyph name="quoteleft" format="2">
  <advance width="340"/>
  <unicode hex="2018"/>
  <outline>
    <contour>
      <point x="116" y="481" type="curve"/>
      <point x="121" y="553"/>
      <point x="154" y="610"/>
      <point x="210" y="653" type="curve"/>
      <point x="219" y="659"/>
      <point x="224" y="663"/>
      <point x="224" y="672" type="curve" smooth="yes"/>
      <point x="224" y="682"/>
      <point x="212" y="694"/>
      <point x="202" y="694" type="curve" smooth="yes"/>
      <point x="184" y="694"/>
      <point x="73" y="609"/>
      <point x="73" y="467" type="curve" smooth="yes"/>
      <point x="73" y="395"/>
      <point x="114" y="340"/>
      <point x="170" y="340" type="curve" smooth="yes"/>
      <point x="221" y="340"/>
      <point x="250" y="379"/>
      <point x="250" y="420" type="curve" smooth="yes"/>
      <point x="250" y="461"/>
      <point x="222" y="500"/>
      <point x="170" y="500" type="curve" smooth="yes"/>
      <point x="146" y="500"/>
      <point x="127" y="491"/>
    </contour>
  </outline>
</glyph>
<glyph name="quotedblright" format="2">
  <advance width="636"/>
  <unicode hex="201D"/>
  <outline>
    <contour>
      <point x="175" y="553" type="curve"/>
      <point x="170" y="481"/>
      <point x="137" y="424"/>
      <point x="81" y="381" type="curve"/>
      <point x="72" y="375"/>
      <point x="67" y="371"/>
      <point x="67" y="362" type="curve" smooth="yes"/>
      <point x="67" y="352"/>
      <point x="79" y="340"/>
      <point x="89" y="340" type="curve" smooth="yes"/>
      <point x="107" y="340"/>
      <point x="218" y="425"/>
      <point x="218" y="567" type="curve" smooth="yes"/>
      <point x="218" y="639"/>
      <point x="177" y="694"/>
      <point x="121" y="694" type="curve" smooth="yes"/>
      <point x="70" y="694"/>
      <point x="41" y="655"/>
      <point x="41" y="614" type="curve" smooth="yes"/>
      <point x="41" y="573"/>
      <point x="69" y="534"/>
      <point x="121" y="534" type="curve" smooth="yes"/>
      <point x="145" y="534"/>
      <point x="164" y="543"/>
    </contour>
    <contour>
      <point x="437" y="553" type="curve"/>
      <point x="432" y="481"/>
      <point x="399" y="424"/>
      <point x="343" y="381" type="curve"/>
      <point x="334" y="375"/>
      <point x="329" y="371"/>
      <point x="329" y="362" type="curve" smooth="yes"/>
      <point x="329" y="352"/>
      <point x="341" y="340"/>
      <point x="351" y="340" type="curve" smooth="yes"/>
      <point x="369" y="340"/>
      <point x="480" y="425"/>
      <point x="480" y="567" type="curve" smooth="yes"/>
      <point x="480" y="639"/>
      <point x="439" y="694"/>
      <point x="383" y="694" type="curve" smooth="yes"/>
      <point x="332" y="694"/>
      <point x="303" y="655"/>
      <point x="303" y="614" type="curve" smooth="yes"/>
      <point x="303" y="573"/>
      <point x="331" y="534"/>
      <point x="383" y="534" type="curve" smooth="yes"/>
      <point x="407" y="534"/>
      <point x="426" y="543"/>
    </contour>
  </outline>
</glyph>
